<svg width="46" height="45" viewBox="0 0 46 45" fill="none" xmlns="http://www.w3.org/2000/svg">
<ellipse cx="23" cy="22.5" rx="23" ry="22.5" fill="url(#paint0_linear_1199:1268)"/>
<ellipse cx="22.8978" cy="22.2" rx="20.4444" ry="20" fill="url(#paint1_linear_1199:1268)"/>
<ellipse cx="23.1023" cy="22.2" rx="15.3333" ry="15" fill="url(#paint2_linear_1199:1268)"/>
<path d="M29.5528 15.4484C29.4314 15.327 29.2774 15.2433 29.1095 15.2073C28.9417 15.1714 28.767 15.1847 28.6065 15.2458L13.7616 20.8645H13.7587C13.5875 20.9303 13.4408 21.0474 13.3387 21.1997C13.2365 21.352 13.1839 21.5321 13.188 21.7155C13.192 21.8988 13.2526 22.0764 13.3614 22.2241C13.4701 22.3717 13.6219 22.4822 13.7958 22.5404L13.811 22.5452L18.9061 24.7209C19.0055 24.7511 19.111 24.7546 19.2122 24.7313C19.3134 24.7079 19.4067 24.6584 19.4828 24.5877L27.6602 16.968C27.6846 16.9436 27.7135 16.9243 27.7453 16.9111C27.7772 16.8979 27.8113 16.8912 27.8457 16.8912C27.8802 16.8912 27.9143 16.8979 27.9462 16.9111C27.978 16.9243 28.0069 16.9436 28.0313 16.968C28.0557 16.9924 28.075 17.0213 28.0882 17.0531C28.1014 17.085 28.1081 17.1191 28.1081 17.1536C28.1081 17.188 28.1014 17.2221 28.0882 17.254C28.075 17.2858 28.0557 17.3147 28.0313 17.3391L20.4113 25.5128C20.3405 25.5889 20.291 25.6822 20.2677 25.7834C20.2443 25.8846 20.2479 25.9901 20.278 26.0895L22.4545 31.1876C22.4567 31.195 22.4589 31.2017 22.4615 31.2087C22.5803 31.5527 22.8809 31.7954 23.2442 31.8118C23.2601 31.8118 23.2657 31.8118 23.2813 31.8118C23.4647 31.8128 23.6442 31.7586 23.7964 31.6563C23.9486 31.554 24.0665 31.4083 24.1348 31.238L29.7528 16.3973C29.8147 16.2367 29.8287 16.0616 29.7933 15.8932C29.7578 15.7248 29.6742 15.5703 29.5528 15.4484V15.4484Z" fill="url(#paint3_linear_1199:1268)"/>
<defs>
<linearGradient id="paint0_linear_1199:1268" x1="23.1022" y1="45" x2="23.1022" y2="1.1" gradientUnits="userSpaceOnUse">
<stop stop-color="#EA00FE"/>
<stop offset="0.369792" stop-color="#FEAD05"/>
<stop offset="0.671875" stop-color="#45DFDD"/>
<stop offset="1" stop-color="#103EF9"/>
</linearGradient>
<linearGradient id="paint1_linear_1199:1268" x1="22.8978" y1="43.2" x2="22.8978" y2="3.19998" gradientUnits="userSpaceOnUse">
<stop stop-color="#3A3A3A"/>
<stop offset="1" stop-color="#090909" stop-opacity="0"/>
</linearGradient>
<linearGradient id="paint2_linear_1199:1268" x1="17.48" y1="9.00001" x2="31.0931" y2="37.4363" gradientUnits="userSpaceOnUse">
<stop stop-color="#2F2F2F"/>
<stop offset="0.484375" stop-opacity="0.74"/>
</linearGradient>
<linearGradient id="paint3_linear_1199:1268" x1="21.5001" y1="15.1876" x2="21.5001" y2="31.8118" gradientUnits="userSpaceOnUse">
<stop stop-color="white"/>
<stop offset="1" stop-color="#C4C4C4"/>
</linearGradient>
</defs>
</svg>
