<svg width="56" height="56" viewBox="0 0 56 56" fill="none" xmlns="http://www.w3.org/2000/svg">
<g filter="url(#filter0_dd_0:1997)">
<circle cx="28" cy="24" r="24" fill="url(#paint0_linear_0:1997)"/>
<circle cx="27.8934" cy="23.68" r="21.3333" fill="url(#paint1_linear_0:1997)"/>
<ellipse cx="28.1067" cy="23.6801" rx="16" ry="16" fill="url(#paint2_linear_0:1997)"/>
<g filter="url(#filter1_d_0:1997)">
<path fill-rule="evenodd" clip-rule="evenodd" d="M34.3399 23.9652C34.0789 25.1075 34.2317 26.3688 35.0953 27.1956L37.3649 29.3684C38.0846 30.0574 38.0846 31.1745 37.3649 31.8635C36.6452 32.5526 35.4784 32.5526 34.7587 31.8635L32.8927 30.0771C31.9261 29.1517 30.4114 29.0845 29.111 29.4881C26.4 30.3295 23.3045 29.7193 21.1511 27.6577C18.0924 24.7294 18.0924 19.9817 21.1511 17.0534C24.2097 14.1251 29.1689 14.1251 32.2275 17.0534C34.1872 18.9295 34.8913 21.5524 34.3399 23.9652ZM29.9933 25.4744C31.7926 23.7519 31.7926 20.9591 29.9933 19.2366C28.1941 17.5141 25.277 17.5141 23.4778 19.2366C21.6785 20.9591 21.6785 23.7519 23.4778 25.4744C25.277 27.197 28.1941 27.197 29.9933 25.4744Z" fill="url(#paint3_linear_0:1997)"/>
</g>
</g>
<defs>
<filter id="filter0_dd_0:1997" x="0" y="0" width="56" height="56" filterUnits="userSpaceOnUse" color-interpolation-filters="sRGB">
<feFlood flood-opacity="0" result="BackgroundImageFix"/>
<feColorMatrix in="SourceAlpha" type="matrix" values="0 0 0 0 0 0 0 0 0 0 0 0 0 0 0 0 0 0 127 0" result="hardAlpha"/>
<feOffset dy="4"/>
<feGaussianBlur stdDeviation="2"/>
<feComposite in2="hardAlpha" operator="out"/>
<feColorMatrix type="matrix" values="0 0 0 0 0 0 0 0 0 0 0 0 0 0 0 0 0 0 0.25 0"/>
<feBlend mode="normal" in2="BackgroundImageFix" result="effect1_dropShadow_0:1997"/>
<feColorMatrix in="SourceAlpha" type="matrix" values="0 0 0 0 0 0 0 0 0 0 0 0 0 0 0 0 0 0 127 0" result="hardAlpha"/>
<feOffset dy="4"/>
<feGaussianBlur stdDeviation="2"/>
<feComposite in2="hardAlpha" operator="out"/>
<feColorMatrix type="matrix" values="0 0 0 0 0 0 0 0 0 0 0 0 0 0 0 0 0 0 0.25 0"/>
<feBlend mode="normal" in2="effect1_dropShadow_0:1997" result="effect2_dropShadow_0:1997"/>
<feBlend mode="normal" in="SourceGraphic" in2="effect2_dropShadow_0:1997" result="shape"/>
</filter>
<filter id="filter1_d_0:1997" x="15.1999" y="14.8572" width="26.3619" height="24.8374" filterUnits="userSpaceOnUse" color-interpolation-filters="sRGB">
<feFlood flood-opacity="0" result="BackgroundImageFix"/>
<feColorMatrix in="SourceAlpha" type="matrix" values="0 0 0 0 0 0 0 0 0 0 0 0 0 0 0 0 0 0 127 0" result="hardAlpha"/>
<feOffset dy="3.65714"/>
<feGaussianBlur stdDeviation="1.82857"/>
<feColorMatrix type="matrix" values="0 0 0 0 0 0 0 0 0 0 0 0 0 0 0 0 0 0 0.25 0"/>
<feBlend mode="normal" in2="BackgroundImageFix" result="effect1_dropShadow_0:1997"/>
<feBlend mode="normal" in="SourceGraphic" in2="effect1_dropShadow_0:1997" result="shape"/>
</filter>
<linearGradient id="paint0_linear_0:1997" x1="28.1067" y1="48" x2="28.1067" y2="1.17333" gradientUnits="userSpaceOnUse">
<stop stop-color="#028684"/>
<stop offset="1" stop-color="#09F9BF"/>
</linearGradient>
<linearGradient id="paint1_linear_0:1997" x1="27.8934" y1="46.08" x2="27.8934" y2="3.41334" gradientUnits="userSpaceOnUse">
<stop stop-color="#3A3A3A"/>
<stop offset="1" stop-color="#090909" stop-opacity="0"/>
</linearGradient>
<linearGradient id="paint2_linear_0:1997" x1="22.24" y1="9.60005" x2="36.96" y2="39.6801" gradientUnits="userSpaceOnUse">
<stop stop-color="#2F2F2F"/>
<stop offset="0.484375" stop-opacity="0.74"/>
</linearGradient>
<linearGradient id="paint3_linear_0:1997" x1="28.3809" y1="14.8572" x2="28.3809" y2="32.3803" gradientUnits="userSpaceOnUse">
<stop stop-color="#028684"/>
<stop offset="1" stop-color="#09F9BF"/>
</linearGradient>
</defs>
</svg>
