<svg width="19" height="17" viewBox="0 0 19 17" fill="none" xmlns="http://www.w3.org/2000/svg">
<path fill-rule="evenodd" clip-rule="evenodd" d="M1.69423 0.189438C0.517019 0.600206 -0.148517 1.58217 0.0282031 2.64795C0.117374 3.18506 6.68113 14.8271 7.62861 16.1282C8.42336 17.2198 10.4156 17.3031 11.3274 16.2829C11.4699 16.1237 11.8824 15.4656 12.2442 14.8206L12.9022 13.6478L12.2282 12.2324C11.3705 10.4311 8.99973 6.08185 8.29074 5.00873L7.74826 4.18782H9.57139H11.3947L12.9336 7.32916C13.7801 9.05698 14.5181 10.4982 14.5737 10.5318C14.6293 10.5654 15.6489 8.92298 16.8393 6.88212C18.8334 3.46338 19.0034 3.10922 19 2.37963C18.9956 1.46193 18.5598 0.746562 17.7428 0.315467C17.279 0.0706017 16.5003 0.0407358 9.77081 0.00883764C3.7638 -0.0196206 2.19261 0.0155617 1.69423 0.189438Z" fill="white"/>
</svg>
