<svg width="22" height="22" viewBox="0 0 22 22" fill="none" xmlns="http://www.w3.org/2000/svg">
<g clip-path="url(#clip0_1137:221)">
<path d="M21.7374 11.6499C21.7374 10.9362 21.6767 10.2185 21.5474 9.51636H11.1719V13.5597H17.1135C16.8669 14.8638 16.0747 16.0174 14.9147 16.7504V19.374H18.4594C20.541 17.5452 21.7374 14.8445 21.7374 11.6499Z" fill="#4285F4"/>
<path d="M11.1719 21.9089C14.1387 21.9089 16.6406 20.9791 18.4635 19.3741L14.9187 16.7505C13.9325 17.391 12.6593 17.7536 11.176 17.7536C8.30622 17.7536 5.873 15.9056 4.99995 13.4209H1.34204V16.1255C3.20939 19.6711 7.01281 21.9089 11.1719 21.9089Z" fill="#34A853"/>
<path d="M4.99587 13.4211C4.53509 12.117 4.53509 10.7049 4.99587 9.40086V6.69629H1.342C-0.218167 9.66322 -0.218167 13.1587 1.342 16.1256L4.99587 13.4211Z" fill="#FBBC04"/>
<path d="M11.1719 5.06416C12.7402 5.04101 14.2559 5.6043 15.3916 6.63829L18.5322 3.64049C16.5436 1.85802 13.9042 0.878045 11.1719 0.908911C7.01281 0.908911 3.20939 3.14665 1.34204 6.69616L4.99591 9.40073C5.86491 6.91222 8.30217 5.06416 11.1719 5.06416Z" fill="#EA4335"/>
</g>
<defs>
<clipPath id="clip0_1137:221">
<rect width="22" height="21" fill="white" transform="translate(0 0.908203)"/>
</clipPath>
</defs>
</svg>
