<svg width="241" height="46" viewBox="0 0 241 46" fill="none" xmlns="http://www.w3.org/2000/svg">
<path d="M16.7766 11.28C19.3632 11.28 21.3766 12.1467 22.8166 13.88C24.2832 15.6133 25.0166 17.96 25.0166 20.92V34H16.1766V22.04C16.1766 20.9733 15.8832 20.1333 15.2966 19.52C14.7366 18.88 13.9766 18.56 13.0166 18.56C12.0299 18.56 11.2566 18.88 10.6966 19.52C10.1366 20.1333 9.85656 20.9733 9.85656 22.04V34H0.976563V4.4H9.85656V14.88C10.5499 13.8133 11.4699 12.9467 12.6166 12.28C13.7899 11.6133 15.1766 11.28 16.7766 11.28ZM50.7072 22.52C50.7072 23.1333 50.6672 23.72 50.5872 24.28H36.3072C36.4405 26.2267 37.2539 27.2 38.7472 27.2C39.7072 27.2 40.4005 26.76 40.8272 25.88H50.2272C49.9072 27.48 49.2272 28.92 48.1872 30.2C47.1739 31.4533 45.8805 32.4533 44.3072 33.2C42.7605 33.92 41.0539 34.28 39.1872 34.28C36.9472 34.28 34.9472 33.8133 33.1872 32.88C31.4539 31.9467 30.0939 30.6133 29.1072 28.88C28.1472 27.12 27.6672 25.0667 27.6672 22.72C27.6672 20.3733 28.1472 18.3333 29.1072 16.6C30.0939 14.84 31.4539 13.4933 33.1872 12.56C34.9472 11.6267 36.9472 11.16 39.1872 11.16C41.4272 11.16 43.4139 11.6267 45.1472 12.56C46.9072 13.4667 48.2672 14.7733 49.2272 16.48C50.2139 18.1867 50.7072 20.2 50.7072 22.52ZM41.7072 20.4C41.7072 19.6533 41.4672 19.0933 40.9872 18.72C40.5072 18.32 39.9072 18.12 39.1872 18.12C37.6139 18.12 36.6939 18.88 36.4272 20.4H41.7072ZM52.3156 22.72C52.3156 20.3467 52.7156 18.2933 53.5156 16.56C54.3423 14.8 55.4623 13.4667 56.8756 12.56C58.289 11.6267 59.8756 11.16 61.6356 11.16C63.1023 11.16 64.369 11.4667 65.4356 12.08C66.5023 12.6667 67.3156 13.48 67.8756 14.52V11.44H76.7156V34H67.8756V30.92C67.3156 31.96 66.5023 32.7867 65.4356 33.4C64.369 33.9867 63.1023 34.28 61.6356 34.28C59.8756 34.28 58.289 33.8267 56.8756 32.92C55.4623 31.9867 54.3423 30.6533 53.5156 28.92C52.7156 27.16 52.3156 25.0933 52.3156 22.72ZM67.8756 22.72C67.8756 21.52 67.569 20.5867 66.9556 19.92C66.3423 19.2533 65.5556 18.92 64.5956 18.92C63.6356 18.92 62.849 19.2533 62.2356 19.92C61.6223 20.5867 61.3156 21.52 61.3156 22.72C61.3156 23.92 61.6223 24.8533 62.2356 25.52C62.849 26.1867 63.6356 26.52 64.5956 26.52C65.5556 26.52 66.3423 26.1867 66.9556 25.52C67.569 24.8533 67.8756 23.92 67.8756 22.72ZM89.5831 15.6C90.4898 14.2933 91.5965 13.2533 92.9031 12.48C94.2098 11.68 95.5698 11.28 96.9831 11.28V20.76H94.4631C92.7831 20.76 91.5431 21.0533 90.7431 21.64C89.9698 22.2267 89.5831 23.2667 89.5831 24.76V34H80.7031V11.44H89.5831V15.6ZM113.415 26.44V34H110.055C103.868 34 100.775 30.92 100.775 24.76V18.84H97.975V11.44H100.775V6H109.655V11.44H113.335V18.84H109.655V24.92C109.655 25.4533 109.775 25.84 110.015 26.08C110.282 26.32 110.708 26.44 111.295 26.44H113.415ZM126.837 34.28C124.704 34.28 122.81 33.9333 121.157 33.24C119.53 32.5467 118.237 31.5867 117.277 30.36C116.317 29.1333 115.77 27.7467 115.637 26.2H124.157C124.264 26.8667 124.544 27.36 124.997 27.68C125.477 28 126.077 28.16 126.797 28.16C127.25 28.16 127.61 28.0667 127.877 27.88C128.144 27.6667 128.277 27.4133 128.277 27.12C128.277 26.6133 127.997 26.2533 127.437 26.04C126.877 25.8267 125.93 25.5867 124.597 25.32C122.97 25 121.624 24.6533 120.557 24.28C119.517 23.9067 118.597 23.2667 117.797 22.36C117.024 21.4533 116.637 20.2 116.637 18.6C116.637 17.2133 116.997 15.96 117.717 14.84C118.464 13.6933 119.557 12.8 120.997 12.16C122.437 11.4933 124.184 11.16 126.237 11.16C129.277 11.16 131.65 11.9067 133.357 13.4C135.09 14.8933 136.13 16.84 136.477 19.24H128.597C128.464 18.6267 128.184 18.16 127.757 17.84C127.33 17.4933 126.757 17.32 126.037 17.32C125.584 17.32 125.237 17.4133 124.997 17.6C124.757 17.76 124.637 18.0133 124.637 18.36C124.637 18.8133 124.917 19.16 125.477 19.4C126.037 19.6133 126.93 19.84 128.157 20.08C129.784 20.4 131.157 20.76 132.277 21.16C133.397 21.56 134.37 22.2533 135.197 23.24C136.024 24.2 136.437 25.5333 136.437 27.24C136.437 28.5733 136.05 29.7733 135.277 30.84C134.504 31.9067 133.384 32.7467 131.917 33.36C130.477 33.9733 128.784 34.28 126.837 34.28ZM154.001 26.44V34H150.641C144.454 34 141.361 30.92 141.361 24.76V18.84H138.561V11.44H141.361V6H150.241V11.44H153.921V18.84H150.241V24.92C150.241 25.4533 150.361 25.84 150.601 26.08C150.868 26.32 151.294 26.44 151.881 26.44H154.001ZM166.263 15.6C167.169 14.2933 168.276 13.2533 169.583 12.48C170.889 11.68 172.249 11.28 173.663 11.28V20.76H171.143C169.463 20.76 168.223 21.0533 167.423 21.64C166.649 22.2267 166.263 23.2667 166.263 24.76V34H157.383V11.44H166.263V15.6ZM180.535 9.64C178.988 9.64 177.748 9.22667 176.815 8.4C175.881 7.57333 175.415 6.53333 175.415 5.28C175.415 4 175.881 2.94667 176.815 2.12C177.748 1.26666 178.988 0.839998 180.535 0.839998C182.055 0.839998 183.281 1.26666 184.215 2.12C185.148 2.94667 185.615 4 185.615 5.28C185.615 6.53333 185.148 7.57333 184.215 8.4C183.281 9.22667 182.055 9.64 180.535 9.64ZM184.935 11.44V34H176.055V11.44H184.935ZM204.745 11.28C207.332 11.28 209.345 12.1467 210.785 13.88C212.252 15.6133 212.985 17.96 212.985 20.92V34H204.145V22.04C204.145 20.9733 203.852 20.1333 203.265 19.52C202.705 18.88 201.945 18.56 200.985 18.56C199.999 18.56 199.225 18.88 198.665 19.52C198.105 20.1333 197.825 20.9733 197.825 22.04V34H188.945V11.44H197.825V14.88C198.519 13.8133 199.439 12.9467 200.585 12.28C201.759 11.6133 203.145 11.28 204.745 11.28ZM224.956 11.16C226.423 11.16 227.689 11.4667 228.756 12.08C229.823 12.6667 230.636 13.48 231.196 14.52V11.44H240.036V33.6C240.036 35.7067 239.649 37.6267 238.876 39.36C238.103 41.0933 236.849 42.48 235.116 43.52C233.409 44.56 231.209 45.08 228.516 45.08C224.889 45.08 222.009 44.2267 219.876 42.52C217.769 40.84 216.569 38.5467 216.276 35.64H224.996C225.236 36.8133 226.196 37.4 227.876 37.4C228.916 37.4 229.729 37.1333 230.316 36.6C230.903 36.0667 231.196 35.0667 231.196 33.6V30.92C230.636 31.96 229.823 32.7867 228.756 33.4C227.689 33.9867 226.423 34.28 224.956 34.28C223.196 34.28 221.609 33.8267 220.196 32.92C218.783 31.9867 217.663 30.6533 216.836 28.92C216.036 27.16 215.636 25.0933 215.636 22.72C215.636 20.3467 216.036 18.2933 216.836 16.56C217.663 14.8 218.783 13.4667 220.196 12.56C221.609 11.6267 223.196 11.16 224.956 11.16ZM231.196 22.72C231.196 21.52 230.889 20.5867 230.276 19.92C229.663 19.2533 228.876 18.92 227.916 18.92C226.956 18.92 226.169 19.2533 225.556 19.92C224.943 20.5867 224.636 21.52 224.636 22.72C224.636 23.92 224.943 24.8533 225.556 25.52C226.169 26.1867 226.956 26.52 227.916 26.52C228.876 26.52 229.663 26.1867 230.276 25.52C230.889 24.8533 231.196 23.92 231.196 22.72Z" fill="url(#paint0_linear_0:2116)"/>
<defs>
<linearGradient id="paint0_linear_0:2116" x1="3" y1="12" x2="233" y2="47" gradientUnits="userSpaceOnUse">
<stop stop-color="#FF28A9"/>
<stop offset="0.510417" stop-color="#FEAD05"/>
<stop offset="1" stop-color="#32CFFF"/>
</linearGradient>
</defs>
</svg>
