<svg width="90" height="78" viewBox="0 0 90 78" fill="none" xmlns="http://www.w3.org/2000/svg">
<path d="M45.066 34.0398C42.3656 29.8183 45.4118 24.2826 50.423 24.3044L71.5048 24.3965C79.1759 24.4299 83.7754 32.9329 79.6053 39.3716L60.4025 69.0214C57.6758 73.2315 51.5123 73.223 48.7972 69.0054C47.2997 66.6792 47.3347 63.684 48.886 61.3934L57.3947 48.8298C60.8157 43.7784 57.1971 36.9572 51.0963 36.9572H50.3953C48.2376 36.9572 46.2287 35.8575 45.066 34.0398Z" fill="url(#paint0_linear_1140:1266)" stroke="#181818" stroke-width="2.42537"/>
<path d="M44.1879 43.9602C46.8883 48.1817 43.8422 53.7174 38.8309 53.6956L17.7491 53.6035C10.078 53.5701 5.47847 45.0671 9.64858 38.6284L28.8514 8.97862C31.5781 4.7685 37.7416 4.777 40.4567 8.99463C41.9542 11.3208 41.9192 14.316 40.3679 16.6066L31.8592 29.1702C28.4382 34.2216 32.0568 41.0428 38.1576 41.0428H38.8586C41.0163 41.0428 43.0252 42.1425 44.1879 43.9602Z" fill="url(#paint1_linear_1140:1266)" stroke="#181818" stroke-width="2.42537"/>
<defs>
<linearGradient id="paint0_linear_1140:1266" x1="64.03" y1="78" x2="64.03" y2="24.2537" gradientUnits="userSpaceOnUse">
<stop offset="0.145833" stop-color="#4167FF"/>
<stop offset="0.729167" stop-color="#51E3C0"/>
<stop offset="1" stop-color="#09F9BF"/>
</linearGradient>
<linearGradient id="paint1_linear_1140:1266" x1="25.2239" y1="0" x2="25.2239" y2="53.7463" gradientUnits="userSpaceOnUse">
<stop stop-color="#FF28A9"/>
<stop offset="1" stop-color="#FEAD05"/>
</linearGradient>
</defs>
</svg>
