<svg width="48" height="48" viewBox="0 0 48 48" fill="none" xmlns="http://www.w3.org/2000/svg">
<circle cx="24" cy="24" r="24" fill="url(#paint0_linear_0:950)"/>
<ellipse cx="23.8934" cy="23.68" rx="21.3333" ry="21.3333" fill="url(#paint1_linear_0:950)"/>
<circle cx="24.1067" cy="23.6801" r="16" fill="url(#paint2_linear_0:950)"/>
<path d="M24.2909 29.1201C24.6244 29.1201 24.9536 29.1054 25.2776 29.0767C25.2532 29.0454 25.2292 29.014 25.2055 28.9823C24.2788 28.1157 23.7347 27.0596 23.7347 25.9201C23.7347 22.9746 27.3697 20.5868 31.8537 20.5868C32.2335 20.5868 32.6072 20.6039 32.9731 20.637C32.0279 17.4014 28.4994 14.7201 24.2909 14.7201C19.3585 14.7201 15.36 17.9436 15.36 21.9201C15.36 24.4477 16.9756 26.671 19.4195 27.9557V30.7201L22.3995 28.9583C23.0092 29.0643 23.642 29.1201 24.2909 29.1201Z" fill="url(#paint3_linear_0:950)"/>
<path d="M32.7197 28.6544C33.8372 27.9989 34.56 26.9552 34.56 25.7797C34.56 23.7954 32.5002 22.1868 29.9593 22.1868C27.4184 22.1868 25.3585 23.7954 25.3585 25.7797C25.3585 27.7641 27.4184 29.3727 29.9593 29.3727L32.7197 30.7201V28.6544Z" fill="url(#paint4_linear_0:950)"/>
<defs>
<linearGradient id="paint0_linear_0:950" x1="24.1067" y1="48" x2="24.1067" y2="1.17333" gradientUnits="userSpaceOnUse">
<stop stop-color="#A902B6"/>
<stop offset="1" stop-color="#FF1178"/>
</linearGradient>
<linearGradient id="paint1_linear_0:950" x1="23.8934" y1="46.08" x2="23.8934" y2="3.41334" gradientUnits="userSpaceOnUse">
<stop stop-color="#3A3A3A"/>
<stop offset="1" stop-color="#090909" stop-opacity="0"/>
</linearGradient>
<linearGradient id="paint2_linear_0:950" x1="18.24" y1="9.60005" x2="32.96" y2="39.6801" gradientUnits="userSpaceOnUse">
<stop stop-color="#2F2F2F"/>
<stop offset="0.484375" stop-opacity="0.74"/>
</linearGradient>
<linearGradient id="paint3_linear_0:950" x1="24.96" y1="14.7201" x2="24.96" y2="30.7201" gradientUnits="userSpaceOnUse">
<stop stop-color="#A902B6"/>
<stop offset="1" stop-color="#FF1178"/>
</linearGradient>
<linearGradient id="paint4_linear_0:950" x1="24.96" y1="14.7201" x2="24.96" y2="30.7201" gradientUnits="userSpaceOnUse">
<stop stop-color="#A902B6"/>
<stop offset="1" stop-color="#FF1178"/>
</linearGradient>
</defs>
</svg>
