<svg width="48" height="48" viewBox="0 0 48 48" fill="none" xmlns="http://www.w3.org/2000/svg">
<circle cx="24" cy="24" r="24" fill="#202020"/>
<circle cx="23.8934" cy="23.6795" r="21.3333" fill="black"/>
<ellipse cx="24.1067" cy="23.6797" rx="16" ry="16" fill="url(#paint0_linear_0:2304)"/>
<path d="M23.5001 33.375C23.2102 33.375 22.9214 33.2719 22.6839 33.0646C21.842 32.3398 21.0259 31.6412 20.2889 31.0458C18.1837 29.2605 16.3417 27.7328 15.0784 26.2315C13.6579 24.5493 13 22.945 13 21.2113C13 19.5028 13.5787 17.9498 14.658 16.8116C15.7373 15.647 17.237 15 18.8683 15C20.0792 15 21.1841 15.3882 22.1576 16.1131C22.6571 16.5013 23.1053 16.941 23.5 17.4849C23.8947 16.941 24.3418 16.5013 24.8424 16.1131C25.8159 15.3629 26.9208 15 28.1317 15C29.763 15 31.2371 15.647 32.342 16.8116C33.4213 17.9499 34 19.5291 34 21.2113C34 22.9713 33.3421 24.5493 31.9216 26.2315C30.6583 27.7328 28.8163 29.2593 26.7111 31.0458C26.0009 31.6412 25.159 32.3398 24.3161 33.0646C24.0787 33.2719 23.7899 33.375 23.5001 33.375Z" fill="url(#paint1_linear_0:2304)"/>
<defs>
<linearGradient id="paint0_linear_0:2304" x1="19.84" y1="7.67969" x2="29.44" y2="39.6797" gradientUnits="userSpaceOnUse">
<stop stop-color="#2F2F2F"/>
<stop offset="0.463542"/>
</linearGradient>
<linearGradient id="paint1_linear_0:2304" x1="23.5" y1="15" x2="23.5" y2="33.375" gradientUnits="userSpaceOnUse">
<stop stop-color="#FF7854"/>
<stop offset="1" stop-color="#FF4D4D"/>
</linearGradient>
</defs>
</svg>
