<svg width="48" height="48" viewBox="0 0 48 48" fill="none" xmlns="http://www.w3.org/2000/svg">
<circle cx="24" cy="24" r="24" fill="#202020"/>
<circle cx="23.8934" cy="23.6795" r="21.3333" fill="black"/>
<ellipse cx="24.1067" cy="23.6797" rx="16" ry="16" fill="url(#paint0_linear_1195:1267)"/>
<path d="M33.1878 23.4581L26.0162 30.2585C25.7232 30.5363 25.2834 30.6192 24.9001 30.4689C24.5179 30.3186 24.2682 29.9643 24.2682 29.5718V26.6729C17.4443 26.8933 14.7684 29.2675 14.7416 29.293C14.418 29.5917 13.9243 29.6536 13.5286 29.446C13.1329 29.2374 12.9274 28.8085 13.0234 28.3895C13.0445 28.2976 15.2036 19.5391 24.2681 18.9199V15.971C24.2681 15.5785 24.5178 15.2243 24.9001 15.074C25.2833 14.9237 25.7232 15.0066 26.0161 15.2844L33.1877 22.0847C33.3798 22.2669 33.4883 22.5137 33.4883 22.7714C33.4883 23.0292 33.3799 23.276 33.1878 23.4581Z" fill="url(#paint1_linear_1195:1267)"/>
<defs>
<linearGradient id="paint0_linear_1195:1267" x1="19.84" y1="7.67969" x2="29.44" y2="39.6797" gradientUnits="userSpaceOnUse">
<stop stop-color="#2F2F2F"/>
<stop offset="0.463542"/>
</linearGradient>
<linearGradient id="paint1_linear_1195:1267" x1="23.2442" y1="15" x2="23.2442" y2="30.5429" gradientUnits="userSpaceOnUse">
<stop stop-color="#9044EA"/>
<stop offset="1" stop-color="#EA00FE"/>
</linearGradient>
</defs>
</svg>
