<svg width="48" height="48" viewBox="0 0 48 48" fill="none" xmlns="http://www.w3.org/2000/svg">
<ellipse cx="24.224" cy="24" rx="23.232" ry="24" fill="url(#paint0_linear_0:631)"/>
<ellipse cx="24.1208" cy="23.68" rx="20.6507" ry="21.3333" fill="url(#paint1_linear_0:631)"/>
<ellipse cx="24.3273" cy="23.6801" rx="15.488" ry="16" fill="url(#paint2_linear_0:631)"/>
<g filter="url(#filter0_d_0:631)">
<path d="M23.5903 12.7492C23.7559 12.4024 24.2496 12.4024 24.4152 12.7492L27.2795 18.7446C27.3449 18.8815 27.474 18.9771 27.6241 18.9996L34.0527 19.9646C34.423 20.0202 34.5731 20.4731 34.3092 20.7388L29.6388 25.4418C29.5352 25.5461 29.4881 25.6938 29.5122 25.8388L30.6122 32.4639C30.6745 32.8394 30.2775 33.1222 29.943 32.9405L24.2209 29.8328C24.0849 29.7589 23.9206 29.7589 23.7846 29.8328L18.0625 32.9405C17.728 33.1222 17.331 32.8394 17.3933 32.4639L18.4933 25.8388C18.5174 25.6938 18.4702 25.5461 18.3667 25.4418L13.6963 20.7388C13.4324 20.4731 13.5825 20.0202 13.9528 19.9646L20.3814 18.9996C20.5315 18.9771 20.6606 18.8815 20.726 18.7446L23.5903 12.7492Z" fill="#22B7F9"/>
<path d="M23.5903 12.7492C23.7559 12.4024 24.2496 12.4024 24.4152 12.7492L27.2795 18.7446C27.3449 18.8815 27.474 18.9771 27.6241 18.9996L34.0527 19.9646C34.423 20.0202 34.5731 20.4731 34.3092 20.7388L29.6388 25.4418C29.5352 25.5461 29.4881 25.6938 29.5122 25.8388L30.6122 32.4639C30.6745 32.8394 30.2775 33.1222 29.943 32.9405L24.2209 29.8328C24.0849 29.7589 23.9206 29.7589 23.7846 29.8328L18.0625 32.9405C17.728 33.1222 17.331 32.8394 17.3933 32.4639L18.4933 25.8388C18.5174 25.6938 18.4702 25.5461 18.3667 25.4418L13.6963 20.7388C13.4324 20.4731 13.5825 20.0202 13.9528 19.9646L20.3814 18.9996C20.5315 18.9771 20.6606 18.8815 20.726 18.7446L23.5903 12.7492Z" fill="url(#paint3_linear_0:631)"/>
</g>
<defs>
<filter id="filter0_d_0:631" x="9.90591" y="12.4891" width="28.1937" height="27.8221" filterUnits="userSpaceOnUse" color-interpolation-filters="sRGB">
<feFlood flood-opacity="0" result="BackgroundImageFix"/>
<feColorMatrix in="SourceAlpha" type="matrix" values="0 0 0 0 0 0 0 0 0 0 0 0 0 0 0 0 0 0 127 0" result="hardAlpha"/>
<feOffset dy="3.65714"/>
<feGaussianBlur stdDeviation="1.82857"/>
<feColorMatrix type="matrix" values="0 0 0 0 0 0 0 0 0 0 0 0 0 0 0 0 0 0 0.25 0"/>
<feBlend mode="normal" in2="BackgroundImageFix" result="effect1_dropShadow_0:631"/>
<feBlend mode="normal" in="SourceGraphic" in2="effect1_dropShadow_0:631" result="shape"/>
</filter>
<linearGradient id="paint0_linear_0:631" x1="24.3273" y1="48" x2="24.3273" y2="1.17333" gradientUnits="userSpaceOnUse">
<stop stop-color="#FFBB35"/>
<stop offset="1" stop-color="#FFDC5D"/>
</linearGradient>
<linearGradient id="paint1_linear_0:631" x1="24.1208" y1="46.08" x2="24.1208" y2="3.41334" gradientUnits="userSpaceOnUse">
<stop stop-color="#3A3A3A"/>
<stop offset="1" stop-color="#090909" stop-opacity="0"/>
</linearGradient>
<linearGradient id="paint2_linear_0:631" x1="18.6483" y1="9.60005" x2="33.66" y2="39.2945" gradientUnits="userSpaceOnUse">
<stop stop-color="#2F2F2F"/>
<stop offset="0.484375" stop-opacity="0.74"/>
</linearGradient>
<linearGradient id="paint3_linear_0:631" x1="27.836" y1="19.5945" x2="23.8923" y2="28.9263" gradientUnits="userSpaceOnUse">
<stop stop-color="#FFBB35"/>
<stop offset="1" stop-color="#FFDC5D"/>
</linearGradient>
</defs>
</svg>
