<svg width="48" height="48" viewBox="0 0 48 48" fill="none" xmlns="http://www.w3.org/2000/svg">
<circle cx="24" cy="24" r="24" fill="#202020"/>
<circle cx="23.8934" cy="23.6795" r="21.3333" fill="black"/>
<ellipse cx="24.1067" cy="23.6797" rx="16" ry="16" fill="url(#paint0_linear_1167:1268)"/>
<g filter="url(#filter0_d_1167:1268)">
<path d="M23.3654 12.8226C23.5315 12.4861 24.0113 12.4861 24.1774 12.8226L27.1256 18.7963C27.1915 18.9299 27.319 19.0225 27.4665 19.044L34.0588 20.0019C34.4301 20.0558 34.5784 20.5122 34.3097 20.7741L29.5395 25.424C29.4327 25.528 29.3841 25.6778 29.4092 25.8247L30.5353 32.3904C30.5988 32.7602 30.2106 33.0423 29.8784 32.8677L23.9821 29.7678C23.8502 29.6984 23.6926 29.6984 23.5607 29.7678L17.6644 32.8677C17.3322 33.0423 16.944 32.7602 17.0075 32.3904L18.1336 25.8247C18.1588 25.6778 18.1101 25.528 18.0034 25.424L13.2331 20.7741C12.9644 20.5122 13.1127 20.0558 13.484 20.0019L20.0763 19.044C20.2238 19.0225 20.3513 18.9299 20.4172 18.7963L23.3654 12.8226Z" fill="#22B7F9"/>
<path d="M23.3654 12.8226C23.5315 12.4861 24.0113 12.4861 24.1774 12.8226L27.1256 18.7963C27.1915 18.9299 27.319 19.0225 27.4665 19.044L34.0588 20.0019C34.4301 20.0558 34.5784 20.5122 34.3097 20.7741L29.5395 25.424C29.4327 25.528 29.3841 25.6778 29.4092 25.8247L30.5353 32.3904C30.5988 32.7602 30.2106 33.0423 29.8784 32.8677L23.9821 29.7678C23.8502 29.6984 23.6926 29.6984 23.5607 29.7678L17.6644 32.8677C17.3322 33.0423 16.944 32.7602 17.0075 32.3904L18.1336 25.8247C18.1588 25.6778 18.1101 25.528 18.0034 25.424L13.2331 20.7741C12.9644 20.5122 13.1127 20.0558 13.484 20.0019L20.0763 19.044C20.2238 19.0225 20.3513 18.9299 20.4172 18.7963L23.3654 12.8226Z" fill="url(#paint1_linear_1167:1268)"/>
</g>
<defs>
<filter id="filter0_d_1167:1268" x="9.47394" y="12.5703" width="28.5949" height="27.5942" filterUnits="userSpaceOnUse" color-interpolation-filters="sRGB">
<feFlood flood-opacity="0" result="BackgroundImageFix"/>
<feColorMatrix in="SourceAlpha" type="matrix" values="0 0 0 0 0 0 0 0 0 0 0 0 0 0 0 0 0 0 127 0" result="hardAlpha"/>
<feOffset dy="3.62195"/>
<feGaussianBlur stdDeviation="1.81098"/>
<feColorMatrix type="matrix" values="0 0 0 0 0 0 0 0 0 0 0 0 0 0 0 0 0 0 0.25 0"/>
<feBlend mode="normal" in2="BackgroundImageFix" result="effect1_dropShadow_1167:1268"/>
<feBlend mode="normal" in="SourceGraphic" in2="effect1_dropShadow_1167:1268" result="shape"/>
</filter>
<linearGradient id="paint0_linear_1167:1268" x1="19.84" y1="7.67969" x2="29.44" y2="39.6797" gradientUnits="userSpaceOnUse">
<stop stop-color="#2F2F2F"/>
<stop offset="0.463542"/>
</linearGradient>
<linearGradient id="paint1_linear_1167:1268" x1="27.6933" y1="19.6346" x2="23.876" y2="28.9657" gradientUnits="userSpaceOnUse">
<stop stop-color="#FFBB35"/>
<stop offset="1" stop-color="#FFDC5D"/>
</linearGradient>
</defs>
</svg>
