<svg width="60" height="60" viewBox="0 0 60 60" fill="none" xmlns="http://www.w3.org/2000/svg">
<circle cx="30" cy="30" r="30" fill="url(#paint0_linear_0:2180)"/>
<ellipse cx="29.8667" cy="29.6" rx="26.6667" ry="26.6667" fill="url(#paint1_linear_0:2180)"/>
<circle cx="30.1334" cy="29.6" r="20" fill="url(#paint2_linear_0:2180)"/>
<path d="M30.1869 26.4925C29.0372 24.6952 30.3341 22.3383 32.4677 22.3476L41.4433 22.3868C44.7093 22.4011 46.6675 26.0212 44.8921 28.7625L36.7165 41.386C35.5556 43.1784 32.9314 43.1748 31.7755 41.3791C31.1379 40.3888 31.1528 39.1135 31.8133 38.1383L35.4359 32.7893C36.8924 30.6387 35.3517 27.7346 32.7543 27.7346H32.4559C31.5372 27.7346 30.6819 27.2664 30.1869 26.4925Z" fill="url(#paint3_linear_0:2180)" stroke="#181818" stroke-width="1.03261"/>
<path d="M29.8131 30.7161C30.9628 32.5134 29.6659 34.8703 27.5323 34.861L18.5567 34.8218C15.2907 34.8076 13.3325 31.1874 15.1079 28.4461L23.2835 15.8227C24.4444 14.0302 27.0686 14.0338 28.2245 15.8295C28.8621 16.8198 28.8472 18.0951 28.1867 19.0703L24.5641 24.4193C23.1076 26.5699 24.6483 29.474 27.2457 29.474H27.5441C28.4628 29.474 29.3181 29.9422 29.8131 30.7161Z" fill="url(#paint4_linear_0:2180)" stroke="#181818" stroke-width="1.03261"/>
<defs>
<linearGradient id="paint0_linear_0:2180" x1="30.1333" y1="60" x2="30.1333" y2="1.46667" gradientUnits="userSpaceOnUse">
<stop stop-color="#EA00FE"/>
<stop offset="0.369792" stop-color="#FEAD05"/>
<stop offset="0.671875" stop-color="#45DFDD"/>
<stop offset="1" stop-color="#103EF9"/>
</linearGradient>
<linearGradient id="paint1_linear_0:2180" x1="29.8667" y1="57.6" x2="29.8667" y2="4.26662" gradientUnits="userSpaceOnUse">
<stop stop-color="#3A3A3A"/>
<stop offset="1" stop-color="#090909" stop-opacity="0"/>
</linearGradient>
<linearGradient id="paint2_linear_0:2180" x1="22.8" y1="12" x2="41.2" y2="49.6" gradientUnits="userSpaceOnUse">
<stop stop-color="#2F2F2F"/>
<stop offset="0.484375" stop-opacity="0.74"/>
</linearGradient>
<linearGradient id="paint3_linear_0:2180" x1="38.2609" y1="45.2086" x2="38.2609" y2="22.326" gradientUnits="userSpaceOnUse">
<stop offset="0.145833" stop-color="#4167FF"/>
<stop offset="0.729167" stop-color="#51E3C0"/>
<stop offset="1" stop-color="#09F9BF"/>
</linearGradient>
<linearGradient id="paint4_linear_0:2180" x1="21.7391" y1="12" x2="21.7391" y2="34.8826" gradientUnits="userSpaceOnUse">
<stop stop-color="#FF28A9"/>
<stop offset="1" stop-color="#FEAD05"/>
</linearGradient>
</defs>
</svg>
