<svg width="48" height="48" viewBox="0 0 48 48" fill="none" xmlns="http://www.w3.org/2000/svg">
<circle cx="23.7691" cy="24.2017" r="23.7691" fill="url(#paint0_linear_0:905)"/>
<circle cx="23.6634" cy="23.8848" r="21.128" fill="url(#paint1_linear_0:905)"/>
<circle cx="23.8747" cy="23.8847" r="15.846" fill="url(#paint2_linear_0:905)"/>
<path d="M26.4485 25.3547C27.4234 24.4161 28.0454 22.9916 28.0454 21.3966C28.0454 18.5701 26.092 16.2787 23.6823 16.2787C21.2727 16.2787 19.3193 18.5701 19.3193 21.3966C19.3193 22.8813 19.8582 24.2183 20.7191 25.1531C18.575 26.7687 16.0232 29.3349 17.6071 30.7795C20.8851 32.5734 26.0205 32.5728 29.2973 30.7795C30.8169 29.3936 28.53 26.9755 26.4485 25.3547Z" fill="url(#paint3_linear_0:905)"/>
<defs>
<linearGradient id="paint0_linear_0:905" x1="23.8747" y1="47.9707" x2="23.8747" y2="1.59466" gradientUnits="userSpaceOnUse">
<stop stop-color="#103EF9"/>
<stop offset="1" stop-color="#32CFFF"/>
</linearGradient>
<linearGradient id="paint1_linear_0:905" x1="23.6634" y1="46.0692" x2="23.6634" y2="3.81311" gradientUnits="userSpaceOnUse">
<stop stop-color="#3A3A3A"/>
<stop offset="1" stop-color="#090909" stop-opacity="0"/>
</linearGradient>
<linearGradient id="paint2_linear_0:905" x1="19.6491" y1="8.0387" x2="29.1567" y2="39.7308" gradientUnits="userSpaceOnUse">
<stop stop-color="#2F2F2F"/>
<stop offset="0.463542"/>
</linearGradient>
<linearGradient id="paint3_linear_0:905" x1="23.4522" y1="16.2787" x2="23.4522" y2="32.1247" gradientUnits="userSpaceOnUse">
<stop stop-color="#103EF9"/>
<stop offset="1" stop-color="#32CFFF"/>
</linearGradient>
</defs>
</svg>
